<?xml version="1.0" encoding="utf-8"?>
<!-- Generator: Adobe Illustrator 25.0.0, SVG Export Plug-In . SVG Version: 6.00 Build 0)  -->
<svg version="1.1" id="Layer_1" xmlns="http://www.w3.org/2000/svg" xmlns:xlink="http://www.w3.org/1999/xlink" x="0px" y="0px"
	 viewBox="0 0 2459.02 878.64" style="enable-background:new 0 0 2459.02 878.64;" xml:space="preserve">
<style type="text/css">
	.st0{fill:#FFFFFF;}
</style>
<g>
	<path class="st0" d="M693.58,647.62c61.49-74.47,89.51-175.47,67.2-277.49C723.29,198.77,555.61,87.37,383.12,119.29
		C204.22,152.4,87.71,324.82,122.27,502.18C156.9,679.88,330.9,795.8,508.19,759.2c2.22-0.46,4.43-0.94,6.64-1.43
		c23.59-5.38,47.76-6.08,71.19-2.27c13.36,2.17,53.33,33.38,74.77,45.26c11.28,6.25,12.02-3.1,12.81-2.61
		c0,0-64.12-60.5-108.01-108.6c-13.76-15.08-34.73-21.35-54.52-16.33c-3.42,0.87-7.23,1.77-11.72,2.86
		c-2.72,0.65-5.48,1.27-8.24,1.83c-130.68,26.8-258.33-57.4-285.13-188.07c-26.8-130.68,57.4-258.33,188.08-285.13
		c130.67-26.8,258.32,57.4,285.12,188.08c17.08,83.28-10.93,165.33-67.31,220.82l0.29,0.31l0,0c-3.76,5.23-4.19,12.15-1.11,17.81
		l82.52,151.37c2.77-0.86,5.99-3.46,8.75-6.03c1.61-1.5,2.07-3.87,1.15-5.87c-5.15-11.28-24.61-46.28-25.99-73.23
		C675.8,664.7,693.58,647.62,693.58,647.62L693.58,647.62z"/>
	<g>
		<g>
			<path class="st0" d="M664.56,765.49C532.25,626.33,379.38,416.83,418.42,357.65c38.51-58.38,219.51,17.87,219.51,17.87
				s-140.35-22.09-162.17,21.36C458.23,431.77,607.17,673.11,664.56,765.49z M331.31,299.25c-6.53-27.28,11.31-54.34,38.96-59.09
				c25.02-4.29,49.41,11.81,55.29,36.51c6.49,27.25-11.32,54.25-38.92,59.02C361.62,340.01,337.22,323.94,331.31,299.25z
				 M382.01,373.62c-19.95,35.03,85.43,190.21,85.43,190.21c15.9,24.66,33.4,49.73,51.51,74.36
				c-1.58-0.16-142.76-103.24-178.24-201.2C327.27,399.88,382.01,373.62,382.01,373.62z"/>
		</g>
		
			<ellipse transform="matrix(0.0115 -0.9999 0.9999 0.0115 86.1711 663.0226)" class="st0" cx="378.42" cy="287.93" rx="48.46" ry="48.46"/>
	</g>
</g>
<g>
	<g>
		<path class="st0" d="M1129.76,366.4c-15.91-27.48-35.44-47.1-58.6-58.83c-23.32-12.35-58.83-18.53-106.55-18.53h-86.86v332.16
			h86.86c47.71,0,83.23-6.17,106.55-18.53c23.16-11.73,42.7-31.35,58.6-58.83c6.95-12.2,12.12-25.71,15.52-40.54
			c3.4-14.82,5.25-30.88,5.56-48.18c-0.31-17.29-2.16-33.35-5.56-48.18C1141.88,392.11,1136.7,378.6,1129.76,366.4z M973.87,559.35
			h-32.89V350.88h32.89c74.58,0,112.57,34.74,113.96,104.23C1086.44,524.6,1048.45,559.35,973.87,559.35z M1180.25,621.19h61.84
			V289.03h-61.84V621.19z M1644.66,492.17h156.81v-55.59h-156.81V492.17z M1868.83,621.19h61.84V289.03h-61.84V621.19z
			 M1470.71,437.51l21.54,53.97h-89.64l44.94-114.19l32.43-83.62l-1.62-4.63h-63.47L1286.8,621.19h64.86l27.8-68.1h135.96
			l24.55,68.1h66.71l-103.54-267.3L1470.71,437.51z M2263.29,567.92c27.48-31.65,41.23-69.03,41.23-112.11
			c0-46.17-16.21-85.55-48.64-118.13c-30.73-32.43-69.1-48.64-115.12-48.64c-29.96,0-57.52,7.34-82.69,22
			c-25.17,14.82-45.32,34.98-60.45,60.46c-14.82,25.17-22.24,53.27-22.24,84.31c0,44.47,15.75,83.39,47.25,116.74
			c31.5,32.43,70.88,48.64,118.13,48.64c6.64,0,13.05-0.23,19.23-0.7c6.17-0.46,12.12-1.23,17.83-2.32l-43.08-54.43
			c-22.39-1.39-42.54-9.34-60.45-23.86c-24.55-20.69-36.83-48.72-36.83-84.08c0-31.19,9.88-56.75,29.65-76.67
			c19.3-20.69,43.85-31.04,73.66-31.04c28.1,0,52.27,10.35,72.5,31.04c20.54,21.77,30.81,47.33,30.81,76.67
			c0,23.94-6.33,45.09-18.99,63.47l-28.26-36.83h-72.27c17.91,23.32,35.75,46.48,53.51,69.49c17.76,23.01,35.67,46.09,53.74,69.26
			h73.43L2263.29,567.92z"/>
	</g>
</g>
</svg>
